<?xml version="1.0" encoding="UTF-8"?>
<svg width="56px" height="56px" viewBox="0 0 56 56" version="1.1" xmlns="http://www.w3.org/2000/svg" xmlns:xlink="http://www.w3.org/1999/xlink">
  <title>Kind Ads Less Spam</title>
  <defs>
    <rect id="path-1" x="0" y="0" width="56" height="56" rx="8"></rect>
    <filter x="-14.6%" y="-12.2%" width="129.2%" height="134.1%" filterUnits="objectBoundingBox" id="filter-2">
      <feOffset dx="0" dy="2" in="SourceAlpha" result="shadowOffsetOuter1"></feOffset>
      <feGaussianBlur stdDeviation="2" in="shadowOffsetOuter1" result="shadowBlurOuter1"></feGaussianBlur>
      <feColorMatrix values="0 0 0 0 0   0 0 0 0 0.435294118   0 0 0 0 0.82745098  0 0 0 1 0" type="matrix" in="shadowBlurOuter1" result="shadowMatrixOuter1"></feColorMatrix>
      <feMerge>
        <feMergeNode in="shadowMatrixOuter1"></feMergeNode>
        <feMergeNode in="SourceGraphic"></feMergeNode>
      </feMerge>
    </filter>
  </defs>
  <g id="Artboard" stroke="none" stroke-width="1" fill="none" fill-rule="evenodd">
    <g id="00-Landing" transform="translate(-280.000000, -1200.000000)">
      <g id="Features" transform="translate(160.000000, 880.000000)">
        <g id="Group" transform="translate(0.000000, 240.000000)">
          <g transform="translate(18.000000, 80.000000)" id="Icons-/-Features-/-Holder">
            <g transform="translate(102.000000, 0.000000)">
              <g id="group">
                <g id="Rectangle">
                  <use fill="#FFFFFF" xlink:href="#path-1"></use>
                  <use fill-opacity="0.8" fill="#006FD3" xlink:href="#path-1"></use>
                </g>
                <g id="Icons-/-Features-/-Spam" transform="translate(4.000000, 4.000000)">
                  <g id="group" filter="url(#filter-2)" transform="translate(0.000000, 3.000000)">
                    <g id="Group" transform="translate(10.847458, 13.559322)" fill-rule="nonzero">
                      <path d="M33.4108475,0.534915254 L15.5172881,0.534915254 C15.4983051,4.2020339 13.8725424,7.48745763 11.3091525,9.72813559 L17.9145763,16.3369492 L33.6630508,0.585084746 C33.5749153,0.576949153 33.5023729,0.534915254 33.4108475,0.534915254 Z" id="Shape" fill="#F2F5F7"></path>
                      <path d="M35.9816949,2.31932203 L19.0440678,19.2576271 C18.8020339,19.4962712 18.4827119,19.6291525 18.1383051,19.6291525 C17.8020339,19.6291525 17.479322,19.4962712 17.240678,19.2576271 L9.40271186,11.4162712 C7.53694915,12.5566102 5.34440678,13.2142373 2.99728814,13.2142373 C2.1579661,13.2142373 1.33762712,13.1294915 0.545084746,12.9694915 L0.545084746,23.6698305 C0.545084746,25.0759322 1.68135593,26.2128814 3.09152542,26.2128814 L33.6345763,26.2128814 C35.0379661,26.2128814 36.1783051,25.0759322 36.1783051,23.6698305 L36.1783051,3.30169492 C36.1783051,2.95457627 36.1084746,2.62101695 35.9816949,2.31932203 Z" id="Shape" fill="#FFFFFF"></path>
                    </g>
                    <g id="Group" fill-rule="nonzero">
                      <path d="M13.9647458,4.93898305 C9.74508475,4.11389831 5.6420339,6.8759322 4.81762712,11.0949153 C4.36338983,13.4216949 5.00271186,15.7098305 6.37220339,17.4366102 L17.2379661,6.43389831 C16.3057627,5.70847458 15.2,5.18033898 13.9647458,4.93898305 Z" id="Shape" fill="#F2F5F7"></path>
                      <path d="M8.40677966,19.2345763 C9.17694915,19.7071186 10.0366102,20.059661 10.9735593,20.2420339 C15.1932203,21.0671186 19.2962712,18.3050847 20.1213559,14.0847458 C20.5166102,12.0616949 20.080678,10.0684746 19.060339,8.44677966 L8.40677966,19.2345763 Z" id="Shape" fill="#F2F5F7"></path>
                      <path d="M12.4698305,0.13220339 C5.58983051,0.13220339 0.0122033898,5.70983051 0.0122033898,12.5898305 C0.0122033898,19.4698305 5.58983051,25.0474576 12.4698305,25.0474576 C19.3498305,25.0474576 24.9274576,19.4698305 24.9274576,12.5898305 C24.9274576,5.70983051 19.3498305,0.13220339 12.4698305,0.13220339 Z M10.4535593,22.9037288 C8.97084746,22.6135593 7.62644068,22.0189831 6.46237288,21.2033898 L6.42644068,21.239322 L6.16542373,20.9810169 C3.05355932,18.6359322 1.35932203,14.6501695 2.15525424,10.5742373 C3.26644068,4.88813559 8.79728814,1.16474576 14.4840678,2.27728814 C20.1708475,3.38847458 23.8935593,8.9179661 22.7823729,14.6054237 C21.6711864,20.2928814 16.1410169,24.0149153 10.4535593,22.9037288 Z" id="Shape" fill="#FFFFFF"></path>
                    </g>
                  </g>
                </g>
              </g>
            </g>
          </g>
        </g>
      </g>
    </g>
  </g>
</svg>
