<?xml version="1.0" encoding="UTF-8"?>
<svg width="25px" height="40px" viewBox="0 0 25 40" version="1.1" xmlns="http://www.w3.org/2000/svg" xmlns:xlink="http://www.w3.org/1999/xlink">
    <title>Arrow Icon</title>
    <defs></defs>
    <g id="Artboard" stroke="none" stroke-width="1" fill="none" fill-rule="evenodd">
        <g id="00-Landing" transform="translate(-670.000000, -1512.000000)" fill="#9B9B9B">
            <g id="CallBack" transform="translate(0.000000, 1488.000000)">
                <g id="Arrow" transform="translate(639.000000, 0.000000)">
                    <path d="M55.75,52.25 C55.9166675,52.4166675 56,52.666665 56,53 C56,53.333335 55.9166675,53.5833325 55.75,53.75 C48.4999638,60.3333662 44.8333338,63.6666662 44.75,63.75 C44.5833325,63.9166675 44.333335,64 44,64 C43.666665,64 43.4166675,63.9166675 43.25,63.75 L32.25,53.75 C31.7499975,53.2499975 31.7499975,52.7500025 32.25,52.25 C32.7500025,51.7499975 33.2499975,51.7499975 33.75,52.25 L43,60.625 L43,25 C43,24.33333 43.33333,24 44,24 C44.66667,24 45,24.33333 45,25 L45,60.625 L54.25,52.25 C54.7500025,51.7499975 55.2499975,51.7499975 55.75,52.25 Z" id="ion-ios-arrow-thin-down---Ionicons"></path>
                </g>
            </g>
        </g>
    </g>
</svg>
