<?xml version="1.0" encoding="UTF-8"?>
<svg width="11px" height="11px" viewBox="0 0 11 11" version="1.1" xmlns="http://www.w3.org/2000/svg" xmlns:xlink="http://www.w3.org/1999/xlink">
    <title>Crosscheck Icon</title>
    <defs></defs>
    <g id="Page-1" stroke="none" stroke-width="1" fill="none" fill-rule="evenodd">
        <g id="1" transform="translate(-334.000000, -927.000000)" fill="#D0021B" fill-rule="nonzero">
            <g id="comparison-chart" transform="translate(265.000000, 691.000000)">
                <g id="Group-8" transform="translate(16.000000, 104.000000)">
                    <g id="Group-4" transform="translate(53.000000, 126.000000)">
                        <g id="Group-10">
                            <g id="if_icon-close_211652" transform="translate(0.000000, 6.000000)">
                                <path d="M10.8753906,9.24492452 L7.11705729,5.47423217 L10.8839844,1.75221239 C11.0386719,1.59760541 11.0386719,1.34565331 10.8839844,1.19104633 L9.81263021,0.114523686 C9.73815104,0.04008329 9.63789063,0 9.53190104,0 C9.42591146,0 9.32565104,0.0429463821 9.25117188,0.114523686 L5.50143229,3.8250911 L1.74596354,0.117386778 C1.67148438,0.0429463821 1.57122396,0.00286309214 1.46523437,0.00286309214 C1.35924479,0.00286309214 1.25898437,0.0458094742 1.18450521,0.117386778 L0.116015625,1.19390942 C-0.038671875,1.3485164 -0.038671875,1.60046851 0.116015625,1.75507548 L3.88294271,5.47709526 L0.127473958,9.24492452 C0.0529947917,9.31936491 0.0100260417,9.41957314 0.0100260417,9.52550755 C0.0100260417,9.63144196 0.0501302083,9.73165018 0.127473958,9.80609058 L1.19882812,10.8826132 C1.27617187,10.9599167 1.37643229,11 1.47955729,11 C1.57981771,11 1.68294271,10.9627798 1.76028646,10.8826132 L5.50143229,7.12623634 L9.24544271,10.8797501 C9.32278646,10.9570536 9.42304688,10.9971369 9.52617188,10.9971369 C9.62643229,10.9971369 9.72955729,10.9599167 9.80690104,10.8797501 L10.8782552,9.80322749 C10.9527344,9.72878709 10.9957031,9.62857887 10.9957031,9.52264446 C10.9928385,9.41957314 10.9498698,9.31936491 10.8753906,9.24492452 Z" id="Shape"></path>
                            </g>
                        </g>
                    </g>
                </g>
            </g>
        </g>
    </g>
</svg>
