<?xml version="1.0" encoding="UTF-8"?>
<svg width="56px" height="56px" viewBox="0 0 56 56" version="1.1" xmlns="http://www.w3.org/2000/svg" xmlns:xlink="http://www.w3.org/1999/xlink">
    <!-- Generator: sketchtool 47.1 (45422) - http://www.bohemiancoding.com/sketch -->
    <title>Kind Ads Paid Fast</title>
    <defs>
        <rect id="path-1" x="0" y="0" width="56" height="56" rx="8"></rect>
        <filter x="-14.6%" y="-26.9%" width="137.5%" height="184.6%" filterUnits="objectBoundingBox" id="filter-2">
            <feOffset dx="0" dy="2" in="SourceAlpha" result="shadowOffsetOuter1"></feOffset>
            <feGaussianBlur stdDeviation="2" in="shadowOffsetOuter1" result="shadowBlurOuter1"></feGaussianBlur>
            <feColorMatrix values="0 0 0 0 0   0 0 0 0 0.435294118   0 0 0 0 0.82745098  0 0 0 1 0" type="matrix" in="shadowBlurOuter1" result="shadowMatrixOuter1"></feColorMatrix>
            <feMerge>
                <feMergeNode in="shadowMatrixOuter1"></feMergeNode>
                <feMergeNode in="SourceGraphic"></feMergeNode>
            </feMerge>
        </filter>
        <filter x="-19.4%" y="-19.2%" width="138.9%" height="153.8%" filterUnits="objectBoundingBox" id="filter-3">
            <feOffset dx="0" dy="2" in="SourceAlpha" result="shadowOffsetOuter1"></feOffset>
            <feGaussianBlur stdDeviation="2" in="shadowOffsetOuter1" result="shadowBlurOuter1"></feGaussianBlur>
            <feColorMatrix values="0 0 0 0 0   0 0 0 0 0.435294118   0 0 0 0 0.82745098  0 0 0 1 0" type="matrix" in="shadowBlurOuter1" result="shadowMatrixOuter1"></feColorMatrix>
            <feMerge>
                <feMergeNode in="shadowMatrixOuter1"></feMergeNode>
                <feMergeNode in="SourceGraphic"></feMergeNode>
            </feMerge>
        </filter>
    </defs>
    <g id="Artboard" stroke="none" stroke-width="1" fill="none" fill-rule="evenodd">
        <g id="00-Landing" transform="translate(-1030.000000, -1200.000000)">
            <g id="Features" transform="translate(160.000000, 880.000000)">
                <g id="Group" transform="translate(0.000000, 240.000000)">
                    <g transform="translate(768.000000, 80.000000)" id="Icons-/-Features-/-Holder">
                        <g transform="translate(102.000000, 0.000000)">
                            <g id="group">
                                <g id="Rectangle">
                                    <use fill="#FFFFFF" xlink:href="#path-1"></use>
                                    <use fill-opacity="0.8" fill="#006FD3" xlink:href="#path-1"></use>
                                </g>
                                <g id="Icons-/-Features-/-Paid" transform="translate(4.000000, 4.000000)" fill="#FFFFFF">
                                    <g id="group" filter="url(#filter-2)" transform="translate(0.000000, 11.000000)">
                                        <g id="bill" filter="url(#filter-3)" transform="translate(12.000000, 0.000000)" fill-rule="nonzero">
                                            <path d="M15.3333333,10.6666667 C12.021901,10.6666667 9.33333333,13.0565046 9.33333333,16 C9.33333333,18.9434954 12.021901,21.3333333 15.3333333,21.3333333 C18.6447657,21.3333333 21.3333333,18.9434954 21.3333333,16 C21.3333333,13.0565046 18.6447657,10.6666667 15.3333333,10.6666667 Z M17.0521244,18.1024967 C16.7919404,18.3828296 16.4529128,18.5720543 16.0508103,18.6701708 C15.8773544,18.7122208 15.7985107,18.7963206 15.8063951,18.9505037 C15.8142795,19.1046868 15.8063951,19.2658782 15.8063951,19.4200613 C15.8063951,19.5602278 15.7275515,19.6373193 15.5698642,19.6373193 C15.3806395,19.6443276 15.1914148,19.6443276 14.9943057,19.6373193 C14.8287341,19.6373193 14.7498905,19.5532194 14.7498905,19.4060447 C14.7498905,19.2939115 14.7498905,19.17477 14.7498905,19.0626369 C14.7498905,18.8103373 14.7341218,18.7963206 14.4660534,18.761279 C14.1112571,18.7122208 13.7722295,18.6421375 13.4489707,18.5019711 C13.196671,18.3898379 13.173018,18.3337714 13.2439772,18.1024967 C13.2991678,17.9272887 13.3543583,17.7520806 13.4095488,17.5768725 C13.4805081,17.3736312 13.543583,17.3526062 13.7485764,17.4437144 C14.1033728,17.6119141 14.4818222,17.7030223 14.8760403,17.7450723 C15.1283399,17.7731056 15.3806395,17.7520806 15.6171704,17.6609724 C16.0586947,17.4927727 16.129654,17.0372317 15.7512046,16.7639071 C15.6250548,16.6727989 15.4831362,16.6027157 15.3333333,16.5466491 C14.9469996,16.3924661 14.5448971,16.2803329 14.174332,16.0840999 C13.5830048,15.7687254 13.2045554,15.3342094 13.2518616,14.696452 C13.2991678,13.9745948 13.7643452,13.5190539 14.5133596,13.2807709 C14.8208498,13.1826544 14.8208498,13.1826544 14.8287341,12.8953132 C14.8287341,12.7971967 14.8287341,12.6990802 14.8287341,12.607972 C14.8366185,12.390714 14.8760403,12.3556724 15.1204555,12.348664 C15.1992992,12.348664 15.2702584,12.348664 15.3491021,12.348664 C15.8615856,12.348664 15.8615856,12.348664 15.86947,12.804205 C15.86947,13.1265878 15.86947,13.1265878 16.2321507,13.1826544 C16.5081034,13.2247043 16.7761717,13.2947876 17.0363557,13.3929041 C17.1782742,13.4489707 17.2334647,13.5330705 17.1861586,13.6662286 C17.1230837,13.8624617 17.0600088,14.065703 16.9890495,14.261936 C16.9180902,14.4441524 16.8550153,14.4721857 16.6579063,14.3880859 C16.2558038,14.2128778 15.8300482,14.1427946 15.3885239,14.1638195 C15.2702584,14.1708279 15.1598774,14.1848445 15.0494963,14.2268944 C14.6631625,14.3740692 14.6000876,14.7525186 14.9312308,14.9837933 C15.0968025,15.1029347 15.2860272,15.1870346 15.4831362,15.2571178 C15.8221638,15.3832676 16.1690758,15.5024091 16.4923346,15.6636005 C17.5015331,16.1752081 17.7774858,17.3245729 17.0521244,18.1024967 Z" id="Shape"></path>
                                            <circle id="Oval" cx="6.66666667" cy="16" r="1.33333333"></circle>
                                            <circle id="Oval" cx="22.6666667" cy="16" r="1.33333333"></circle>
                                            <path d="M33.466435,0 L9.20751902,0 C7.80162953,0 6.66666667,1.08988311 6.66666667,2.42429128 L6.66666667,4.6040575 L27.0740312,4.6040575 C29.6295283,4.6040575 31.7017508,6.58820368 31.7017508,9.01948139 L31.7017508,17.3333333 L33.4591126,17.3333333 C34.8650021,17.3333333 35.999965,16.2434502 35.999965,14.9090421 L35.999965,2.42429128 C36.0072873,1.08988311 34.8650021,0 33.466435,0 Z" id="Shape"></path>
                                            <path d="M26.7930801,8 L2.54021825,8 C1.13467962,8 0,9.08988311 0,10.4242913 L0,22.9090421 C0,24.2504367 1.14200013,25.3333333 2.54021825,25.3333333 L26.7930801,25.3333333 C28.1986187,25.3333333 29.3332983,24.2434502 29.3332983,22.9090421 L29.3332983,10.4312777 C29.3406188,9.08988311 28.1986187,8 26.7930801,8 Z M27.1664263,20.4009136 C27.020016,20.3729679 26.8662852,20.358995 26.7125544,20.358995 C25.2923748,20.358995 24.1357336,21.4558646 24.1357336,22.8182185 C24.1357336,22.9719199 24.1503746,23.1256214 24.1796567,23.2723364 L5.35861602,23.2723364 C5.37325704,23.1745264 5.38057756,23.0697299 5.38057756,22.9649335 C5.38057756,21.609566 4.23125691,20.5057101 2.80375674,20.5057101 C2.58414133,20.5057101 2.37184643,20.5336558 2.16687205,20.5825608 L2.16687205,13.051189 C2.37184643,13.100094 2.58414133,13.1280398 2.80375674,13.1280398 C4.2239364,13.1280398 5.38057756,12.0311702 5.38057756,10.6688163 C5.38057756,10.4592234 5.3512955,10.2636034 5.30005191,10.0679833 L24.1869772,10.0679833 C24.1576952,10.2146984 24.1430541,10.3683998 24.1430541,10.5221013 C24.1430541,11.8774688 25.2923748,12.9813247 26.7198749,12.9813247 C26.8736057,12.9813247 27.0273365,12.9673519 27.1737468,12.9394062 L27.1737468,20.4009136 L27.1664263,20.4009136 Z" id="Shape"></path>
                                        </g>
                                        <g id="Group" transform="translate(0.000000, 7.000000)">
                                            <polygon id="Path" points="0 13 14 13 14 16"></polygon>
                                            <polygon id="Path" points="1 8 14 8 14 10"></polygon>
                                            <polygon id="Path" points="3 4 14 4 14 6"></polygon>
                                        </g>
                                    </g>
                                </g>
                            </g>
                        </g>
                    </g>
                </g>
            </g>
        </g>
    </g>
</svg>
