<svg xmlns="http://www.w3.org/2000/svg" viewBox="0 0 48 48">
  <defs>
    <style>
      .fill {
        fill: none;
      }
    </style>
  </defs>
  <g id="email-icon" transform="translate(15 14)">
    <circle id="bounding" class="fill" cx="24" cy="24" r="24" transform="translate(-15 -14)"/>
    <path id="envelope" data-name="Path 2" d="M7.844,974.362A2.854,2.854,0,0,0,5,977.207v14.222a2.854,2.854,0,0,0,2.844,2.844H34.156A2.854,2.854,0,0,0,37,991.429V977.207a2.854,2.854,0,0,0-2.844-2.844Zm0,1.422H34.156a1.432,1.432,0,0,1,.522.1L22.044,986.027a1.547,1.547,0,0,1-2.111,0L7.322,975.884A1.434,1.434,0,0,1,7.844,975.784ZM6.444,977l12.6,10.145a3.08,3.08,0,0,0,3.889,0L35.556,977a1.458,1.458,0,0,1,.022.211v14.222a1.4,1.4,0,0,1-1.422,1.422H7.844a1.4,1.4,0,0,1-1.422-1.422V977.207A1.457,1.457,0,0,1,6.444,977Z" transform="translate(-12 -974.362)"/>
  </g>
</svg>
