<svg xmlns="http://www.w3.org/2000/svg" viewBox="0 0 48 48">
  <defs>
    <style>
      .colorShape {
        fill: #22283a;
      }
    </style>
  </defs>
  <g id="github" transform="translate(15 14)">
    <circle id="Oval" class="cls-1" cx="24" cy="24" r="24" transform="translate(-15 -14)"/>
    <path id="Shape" class="colorShape" d="M23.992,27.546h-.721v.171c0,1.129,0,2.26-.006,3.39A2.5,2.5,0,0,1,23,32.185a1.425,1.425,0,0,1-1.108.788,1.1,1.1,0,0,1-.251.027,1.342,1.342,0,0,1-.241-.063c.084-.14.148-.253.217-.363a2.168,2.168,0,0,0,.329-1.143c.017-1.213.013-2.427.019-3.641a.506.506,0,0,0-.01-.068.738.738,0,0,0-.592.731c-.007.159,0,.317,0,.476,0,.7-.027,1.4.007,2.1a1.357,1.357,0,0,1-1.342,1.465,3.076,3.076,0,0,1-.49.005.4.4,0,0,1-.171-.051.183.183,0,0,1-.035-.313.872.872,0,0,1,.155-.12,1.411,1.411,0,0,0,.723-1.475c-.043-.5-.065-1-.1-1.5-.136.031-.292.074-.45.1A3.225,3.225,0,0,1,17.7,28.8a2.5,2.5,0,0,1-1.032-1.014,7.866,7.866,0,0,0-.562-.884c-.306-.361-.663-.681-1.005-1.011-.139-.137-.145-.206.016-.321a.814.814,0,0,1,.852,0,2.332,2.332,0,0,1,.843.723,5.032,5.032,0,0,0,1.057,1.036A2,2,0,0,0,20.2,27.3a.308.308,0,0,0,.092-.132,1.723,1.723,0,0,1,.971-1.028l.567-.241c-.285-.035-.531-.064-.774-.1a7.787,7.787,0,0,1-2.992-.966,3.971,3.971,0,0,1-1.87-2.641,6.575,6.575,0,0,1,.092-3.47,4.2,4.2,0,0,1,.875-1.486.209.209,0,0,0,.054-.222,4.8,4.8,0,0,1,.119-2.756c.019-.062.041-.124.062-.186,0-.012.013-.024.037-.073.346.061.706.108,1.058.193a5.409,5.409,0,0,1,1.995.956.248.248,0,0,0,.231.046,11.259,11.259,0,0,1,2.734-.343,12.323,12.323,0,0,1,2.685.286.346.346,0,0,0,.286-.054,6.024,6.024,0,0,1,1.954-.916c.324-.066.656-.094.983-.141a.116.116,0,0,1,.15.1,5.721,5.721,0,0,1,.205,2.749.221.221,0,0,0,.046.17,4.837,4.837,0,0,1,1.2,2.808,7.233,7.233,0,0,1-.147,2.405,4.175,4.175,0,0,1-1.953,2.7,6.047,6.047,0,0,1-2.43.838c-.281.038-.565.065-.868.1.039.026.066.046.095.063l.434.257a2.017,2.017,0,0,1,.994,1.558,3.484,3.484,0,0,1,.029.4c.019,1.032.035,2.063.056,3.093a.334.334,0,0,0,.053.168,1.963,1.963,0,0,0,.674.639c.093.054.182.108.154.237a.228.228,0,0,1-.227.176,1.81,1.81,0,0,1-1.664-.607,1.009,1.009,0,0,1-.2-.686c0-.849,0-1.7,0-2.549a1.975,1.975,0,0,0-.016-.278.778.778,0,0,0-.642-.66v.152c0,1.12,0,2.241,0,3.363a5.726,5.726,0,0,0,.045.627,1.274,1.274,0,0,0,.226.579,4.656,4.656,0,0,1,.266.512.713.713,0,0,1-.2.035,2.1,2.1,0,0,1-1.026-.377,1.708,1.708,0,0,1-.558-1.053A3.1,3.1,0,0,1,24,30.911c-.006-1.065,0-2.129,0-3.194Z" transform="translate(-15 -14)"/>
  </g>
</svg>
