<?xml version="1.0" encoding="UTF-8"?>
<svg width="147px" height="25px" viewBox="0 0 147 25" version="1.1" xmlns="http://www.w3.org/2000/svg" xmlns:xlink="http://www.w3.org/1999/xlink">
  <title>KInd Ads Logo</title>
  <desc>Advertising Without the Irritating Ads</desc>
  <g id="Page-1" stroke="none" stroke-width="1" fill="none" fill-rule="evenodd">
    <g id="1" transform="translate(-208.000000, -31.000000)" fill="#FFFFFF" fill-rule="nonzero">
      <g id="KIND-ADS-Logo-White" transform="translate(208.000000, 31.000000)">
        <path d="M5.85807504,0.447658402 L5.85807504,9.74517906 L12.8466558,0.447658402 L19.3898858,0.447658402 L10.4143556,11.9834711 L19.5611746,24.5523416 L12.8466558,24.5523416 L5.85807504,14.8415978 L5.85807504,24.5523416 L0,24.5523416 L0,0.447658402 L5.85807504,0.447658402 Z M27.7830343,0.447658402 L27.7830343,24.5523416 L21.9249592,24.5523416 L21.9249592,0.447658402 L27.7830343,0.447658402 Z M46.6247961,24.5523416 L37.7177814,9.77961433 L37.7177814,24.5523416 L31.9624796,24.5523416 L31.9624796,0.447658402 L37.9233279,0.447658402 L46.6933116,15.392562 L46.6933116,0.447658402 L52.4486134,0.447658402 L52.4486134,24.5523416 L46.6247961,24.5523416 Z M56.6280587,0.447658402 L63.685155,0.447658402 C71.3931485,0.447658402 76.3262643,4.95867769 76.3262643,12.5 C76.3262643,20.0413223 71.3931485,24.5523416 63.685155,24.5523416 L56.6280587,24.5523416 L56.6280587,0.447658402 Z M63.685155,5.54407713 L62.4861338,5.54407713 L62.4861338,19.4559229 L63.685155,19.4559229 C67.6247961,19.4559229 70.228385,17.1143251 70.228385,12.5 C70.228385,7.88567493 67.6247961,5.54407713 63.685155,5.54407713 Z M99.3132137,19.1460055 L91.776509,19.1460055 L90.0636215,24.5523416 L84.1712887,24.5523416 L92.4616639,0.447658402 L98.6280587,0.447658402 L106.918434,24.5523416 L101.026101,24.5523416 L99.3132137,19.1460055 Z M97.8058728,14.3250689 L95.5448613,6.68044077 L93.2838499,14.3250689 L97.8058728,14.3250689 Z M109.247961,0.447658402 L116.305057,0.447658402 C124.013051,0.447658402 128.946166,4.95867769 128.946166,12.5 C128.946166,20.0413223 124.013051,24.5523416 116.305057,24.5523416 L109.247961,24.5523416 L109.247961,0.447658402 Z M116.305057,5.54407713 L115.106036,5.54407713 L115.106036,19.4559229 L116.305057,19.4559229 C120.244698,19.4559229 122.848287,17.1143251 122.848287,12.5 C122.848287,7.88567493 120.244698,5.54407713 116.305057,5.54407713 Z M139.017945,0 C144.156607,0 146.143556,3.75344353 146.760196,5.5785124 L141.895595,7.81680441 C141.415987,6.74931129 140.696574,5.44077135 138.880914,5.44077135 C137.750408,5.44077135 136.996737,6.12947658 136.996737,7.05922865 C136.996737,10.3305785 147,9.9862259 147,17.3553719 C147,21.7975207 143.848287,25 138.606852,25 C133.228385,25 131.070147,21.0743802 130.453507,19.2493113 L135.352365,16.8044077 C136.003263,18.2162534 137.305057,19.4903581 138.949429,19.4903581 C140.353997,19.4903581 141.073409,18.8705234 141.073409,17.8030303 C141.073409,14.600551 131.138662,14.8760331 131.138662,7.16253444 C131.138662,2.82369146 134.256117,0 139.017945,0 Z" id="KIND-ADS"></path>
      </g>
    </g>
  </g>
</svg>
