<svg xmlns="http://www.w3.org/2000/svg" viewBox="0 0 48 48">
  <defs>
    <style>
      .colorShape {
        fill: #22283a;
      }
    </style>
  </defs>
  <g id="paper" transform="translate(14 12)">
    <circle id="_0val" data-name="0val" class="cls-1" cx="24" cy="24" r="24" transform="translate(-14 -12)"/>
    <g id="paper-2" data-name="paper">
      <path id="Shape" class="colorShape" d="M17,0H3A3,3,0,0,0,0,3V21a3,3,0,0,0,3,3H17a3,3,0,0,0,3-3V3A3,3,0,0,0,17,0Zm1,21a1,1,0,0,1-1,1H3a1,1,0,0,1-1-1V3A1,1,0,0,1,3,2H17a1,1,0,0,1,1,1Z"/>
      <path id="Shape-2" data-name="Shape" class="cls-2" d="M15,18a1,1,0,0,1-1,1H6a1,1,0,0,1,0-2h8A1,1,0,0,1,15,18Z"/>
      <path id="Shape-3" data-name="Shape" class="cls-2" d="M15,14a1,1,0,0,1-1,1H6a1,1,0,0,1,0-2h8A1,1,0,0,1,15,14Z"/>
      <path id="Shape-4" data-name="Shape" class="cls-2" d="M15,10a1,1,0,0,1-1,1H6A1,1,0,0,1,6,9h8A1,1,0,0,1,15,10Z"/>
      <path id="Shape-5" data-name="Shape" class="cls-2" d="M11,6a1,1,0,0,1-1,1H6A1,1,0,0,1,6,5h4A1,1,0,0,1,11,6Z"/>
    </g>
  </g>
</svg>
