<svg xmlns="http://www.w3.org/2000/svg" viewBox="0 0 48 48">
  <defs>
    <style>
      .colorShape {
        fill: #22283a;
      }
    </style>
  </defs>
  <g id="telegram" transform="translate(11 13)">
    <circle id="Oval" class="cls-1" cx="24" cy="24" r="24" transform="translate(-11 -13)"/>
    <path id="Shape" class="colorShape" d="M24.786,29.736c-.924.9-1.84,1.786-2.748,2.678a1.432,1.432,0,0,1-1.13.461.575.575,0,0,1-.58-.448c-.7-2.158-1.4-4.312-2.093-6.472a.5.5,0,0,0-.379-.377q-2.458-.75-4.906-1.531a2.788,2.788,0,0,1-.722-.332.514.514,0,0,1-.084-.865,3.319,3.319,0,0,1,.954-.6c2-.794,4.016-1.562,6.026-2.337l15.3-5.907a1.092,1.092,0,0,1,1.615,1.2,18.061,18.061,0,0,1-.379,1.994Q34,25.05,32.336,32.9c-.264,1.242-1.136,1.566-2.158.812q-2.567-1.892-5.132-3.79C24.964,29.858,24.879,29.8,24.786,29.736Zm-3.842,1.588L21,31.308a1.183,1.183,0,0,0,.03-.146c.11-1.186.226-2.371.322-3.558a.871.871,0,0,1,.311-.63q2.366-2.116,4.717-4.247,2.609-2.353,5.212-4.71a1.464,1.464,0,0,0,.226-.4,1.471,1.471,0,0,0-.486-.045,2.125,2.125,0,0,0-.574.283Q25,21.484,19.244,25.11a.345.345,0,0,0-.175.491c.283.813.541,1.634.808,2.453Z" transform="translate(-11 -13)"/>
  </g>
</svg>
