<svg xmlns="http://www.w3.org/2000/svg" viewBox="0 0 47.263 48">
  <defs>
    <style>
      .colorShape {
        fill: #22283a;
      }
    </style>
  </defs>
  <g id="twitter" transform="translate(10 12)">
    <ellipse id="Oval" cx="23.632" cy="24" rx="23.632" ry="24" transform="translate(-10 -12)"/>
    <path id="Shape" class="colorShape" d="M36.235,15.4a7.8,7.8,0,0,1-2.954.9,5.565,5.565,0,0,0,2.265-3.1A11.294,11.294,0,0,1,32.2,14.6a5,5,0,0,0-3.742-1.8,5.46,5.46,0,0,0-5.219,5.7,5.792,5.792,0,0,0,.1,1.3A14.354,14.354,0,0,1,12.6,13.9a5.494,5.494,0,0,0-.689,2.9,5.719,5.719,0,0,0,2.265,4.7,4.687,4.687,0,0,1-2.363-.7v.1a5.717,5.717,0,0,0,4.135,5.6,5.729,5.729,0,0,1-1.378.2,3.3,3.3,0,0,1-.985-.1,5.135,5.135,0,0,0,4.825,3.9,9.964,9.964,0,0,1-6.4,2.4,5.966,5.966,0,0,1-1.28-.1,13.844,13.844,0,0,0,7.976,2.6c9.551,0,14.77-8.6,14.77-16.1v-.7A11.9,11.9,0,0,0,36.235,15.4Z" transform="translate(-10 -12)"/>
  </g>
</svg>
