<?xml version="1.0" encoding="UTF-8"?>
<svg width="56px" height="56px" viewBox="0 0 56 56" version="1.1" xmlns="http://www.w3.org/2000/svg" xmlns:xlink="http://www.w3.org/1999/xlink">
    <!-- Generator: sketchtool 47.1 (45422) - http://www.bohemiancoding.com/sketch -->
    <title>Kind Ads Friendly Experience</title>
    <defs>
        <rect id="path-1" x="0" y="0" width="56" height="56" rx="8"></rect>
        <filter x="-22.9%" y="-15.9%" width="145.8%" height="150.0%" filterUnits="objectBoundingBox" id="filter-2">
            <feOffset dx="0" dy="2" in="SourceAlpha" result="shadowOffsetOuter1"></feOffset>
            <feGaussianBlur stdDeviation="2" in="shadowOffsetOuter1" result="shadowBlurOuter1"></feGaussianBlur>
            <feColorMatrix values="0 0 0 0 0   0 0 0 0 0.435294118   0 0 0 0 0.82745098  0 0 0 1 0" type="matrix" in="shadowBlurOuter1" result="shadowMatrixOuter1"></feColorMatrix>
            <feMerge>
                <feMergeNode in="shadowMatrixOuter1"></feMergeNode>
                <feMergeNode in="SourceGraphic"></feMergeNode>
            </feMerge>
        </filter>
        <filter x="-14.7%" y="-11.4%" width="130.5%" height="131.8%" filterUnits="objectBoundingBox" id="filter-3">
            <feOffset dx="0" dy="2" in="SourceAlpha" result="shadowOffsetOuter1"></feOffset>
            <feGaussianBlur stdDeviation="2" in="shadowOffsetOuter1" result="shadowBlurOuter1"></feGaussianBlur>
            <feColorMatrix values="0 0 0 0 0   0 0 0 0 0.435294118   0 0 0 0 0.82745098  0 0 0 1 0" type="matrix" in="shadowBlurOuter1" result="shadowMatrixOuter1"></feColorMatrix>
            <feMerge>
                <feMergeNode in="shadowMatrixOuter1"></feMergeNode>
                <feMergeNode in="SourceGraphic"></feMergeNode>
            </feMerge>
        </filter>
    </defs>
    <g id="Artboard" stroke="none" stroke-width="1" fill="none" fill-rule="evenodd">
        <g id="00-Landing" transform="translate(-654.000000, -1200.000000)">
            <g id="Features" transform="translate(160.000000, 880.000000)">
                <g id="Group" transform="translate(0.000000, 240.000000)">
                    <g transform="translate(388.000000, 80.000000)" id="Icons-/-Features-/-Holder">
                        <g transform="translate(106.000000, 0.000000)">
                            <g id="group">
                                <g id="Rectangle">
                                    <use fill="#FFFFFF" xlink:href="#path-1"></use>
                                    <use fill-opacity="0.8" fill="#006FD3" xlink:href="#path-1"></use>
                                </g>
                                <g id="Icons-/-Features-/-Friendly" transform="translate(4.000000, 4.000000)">
                                    <g id="group" filter="url(#filter-2)" transform="translate(0.000000, 2.000000)">
                                        <g id="heart" filter="url(#filter-3)" fill-rule="nonzero">
                                            <g id="Group" transform="translate(3.520000, 0.000000)">
                                                <path d="M16.1524164,42.2122449 L16.1524164,42.2122449 C14.933829,40.9959184 14.802974,38.8326531 15.9888476,37.5918367 L21.3947955,32.2204082 L15.9888476,37.5918367 C14.7457249,38.7755102 12.6275093,38.6857143 11.4007435,37.477551 L11.2944238,37.3714286 C10.067658,36.1469388 9.94498141,34.0979592 11.1472119,32.8571429 L16.5776952,27.4367347 L11.1472119,32.8489796 C9.90408922,34.0408163 7.83494424,33.9183673 6.61635688,32.6938776 L6.55910781,32.6367347 C5.33234201,31.4122449 5.2260223,29.3306122 6.42007435,28.0816327 L11.8260223,22.6693878 L6.42007435,28.0816327 C5.17695167,29.2816327 3.09144981,29.1673469 1.86468401,27.9428571 L1.76654275,27.844898 C0.523420074,26.6040816 0.523420074,24.6040816 1.76654275,23.3632653 L20.397026,4.7755102 C25.6148699,-0.432653061 34.063197,-0.432653061 39.2728625,4.7755102 L39.2728625,4.7755102 C44.4907063,9.98367347 44.4907063,18.4163265 39.2728625,23.6163265 L20.6342007,42.2122449 C19.3992565,43.4530612 17.395539,43.4530612 16.1524164,42.2122449 Z" id="Shape" fill="#FFFFFF"></path>
                                                <path d="M18.3933086,43.9591837 C17.3301115,43.9591837 16.3241636,43.5428571 15.5717472,42.7918367 C14.6312268,41.8530612 14.2304833,40.4816327 14.3858736,39.2163265 C13.1263941,39.3959184 11.7687732,39.0040816 10.8200743,38.0571429 L10.7055762,37.9428571 C9.74869888,36.9877551 9.34795539,35.6816327 9.50334572,34.4571429 C9.28252788,34.4816327 9.0535316,34.4897959 8.82453532,34.4816327 C7.76133829,34.4326531 6.76356877,34 6.01933086,33.2571429 L5.96208178,33.2 C5.02156134,32.2612245 4.62081784,30.9306122 4.78438662,29.6897959 C3.54126394,29.8530612 2.21635688,29.4530612 1.26765799,28.5142857 L1.16951673,28.4163265 C0.417100372,27.6653061 -2.84217094e-14,26.6612245 -2.84217094e-14,25.6 C-2.84217094e-14,24.5387755 0.417100372,23.5346939 1.16951673,22.7836735 L19.8163569,4.20408163 C22.4907063,1.53469388 26.0483271,0.0653061224 29.8349442,0.0653061224 C33.6215613,0.0653061224 37.1710037,1.53469388 39.8453532,4.20408163 C42.5197026,6.87346939 43.9918216,10.4244898 43.9918216,14.2040816 C43.9918216,17.9836735 42.5197026,21.5265306 39.8453532,24.1959184 L21.2148699,42.7918367 C20.4624535,43.5428571 19.4565056,43.9591837 18.3933086,43.9591837 Z M16.5695167,38.1714286 C15.7271375,39.0612245 15.8007435,40.7183673 16.7249071,41.6408163 C16.7249071,41.6408163 16.7249071,41.6408163 16.7249071,41.6408163 C17.1747212,42.0897959 17.7635688,42.3346939 18.3933086,42.3346939 C19.0230483,42.3346939 19.6118959,42.0897959 20.06171,41.6408163 L38.6921933,23.0367347 C41.0639405,20.677551 42.3643123,17.5346939 42.3643123,14.1959184 C42.3643123,10.8571429 41.0639405,7.71428571 38.6921933,5.34693878 C36.3286245,2.97959184 33.1799257,1.68163265 29.8349442,1.68163265 C26.4899628,1.68163265 23.3412639,2.97959184 20.9695167,5.34693878 L2.33903346,23.9428571 C1.88921933,24.3918367 1.64386617,24.9795918 1.64386617,25.6081633 C1.64386617,26.2367347 1.88921933,26.8244898 2.33903346,27.2734694 L2.43717472,27.3714286 C3.37769517,28.3102041 4.93977695,28.3755102 5.8394052,27.5020408 L11.2371747,22.0979592 C11.5561338,21.7795918 12.0713755,21.7795918 12.3903346,22.0979592 C12.5539033,22.2612245 12.6275093,22.4653061 12.6275093,22.677551 C12.6275093,22.8816327 12.5457249,23.0938776 12.3903346,23.2489796 L6.99256506,28.6530612 C6.12565056,29.5673469 6.18289963,31.1265306 7.12342007,32.0653061 L7.18066914,32.122449 C8.12118959,33.0612245 9.6669145,33.1265306 10.5665428,32.2693878 L15.997026,26.8653061 C16.3159851,26.5469388 16.8312268,26.5469388 17.1501859,26.8653061 C17.469145,27.1836735 17.469145,27.6979592 17.1501859,28.0163265 L11.7197026,33.4367347 C10.8609665,34.3265306 10.9182156,35.8693878 11.8587361,36.8081633 L11.9650558,36.9142857 C12.8892193,37.8285714 14.5003717,37.8857143 15.4081784,37.0204082 L20.805948,31.6571429 C21.1249071,31.3387755 21.6401487,31.3387755 21.9591078,31.6571429 C22.1144981,31.8122449 22.1962825,32.0244898 22.1962825,32.2285714 C22.1962825,32.4408163 22.1144981,32.644898 21.9591078,32.8081633 L16.5695167,38.1714286 Z" id="Shape" fill="#006FD3"></path>
                                            </g>
                                            <g id="Group">
                                                <path d="M42.2040816,27.8285714 L42.2040816,27.8285714 C40.9877551,29.044898 38.8244898,29.1755102 37.5836735,27.9918367 L32.2122449,22.5959184 L37.5836735,27.9918367 C38.7673469,29.2326531 38.677551,31.3469388 37.4693878,32.5714286 L37.3632653,32.677551 C36.1387755,33.9020408 34.0897959,34.0244898 32.8489796,32.8244898 L27.4204082,27.3959184 L32.8408163,32.8163265 C34.0326531,34.0571429 33.9102041,36.122449 32.6857143,37.3387755 L32.6285714,37.3959184 C31.4040816,38.6204082 29.322449,38.7265306 28.0734694,37.5346939 L22.6612245,32.1387755 L28.0734694,37.5346939 C29.2734694,38.7755102 29.1591837,40.8571429 27.9346939,42.0816327 L27.8367347,42.1795918 C26.5959184,43.4204082 24.5959184,43.4204082 23.355102,42.1795918 L4.7755102,23.5918367 C-0.432653061,18.3836735 -0.432653061,9.95102041 4.7755102,4.75102041 L4.7755102,4.75102041 C9.98367347,-0.457142857 18.4163265,-0.457142857 23.6163265,4.75102041 L14.2530612,14.244898 L14.2530612,14.244898 C16.3836735,16.3755102 20.4,16.9714286 22.5632653,14.8734694 L28.2204082,9.37142857 L42.2040816,23.355102 C43.444898,24.5877551 43.444898,26.5877551 42.2040816,27.8285714 Z" id="Shape" fill="#FFFFFF"></path>
                                                <path d="M25.6,43.9265306 C24.5387755,43.9265306 23.5346939,43.5102041 22.7836735,42.7591837 L4.19591837,24.1714286 C1.52653061,21.5020408 0.0571428571,17.9510204 0.0571428571,14.1714286 C0.0571428571,10.3918367 1.52653061,6.84897959 4.19591837,4.17959184 C6.86530612,1.51020408 10.4163265,0.0408163265 14.1959184,0.0408163265 C17.9755102,0.0408163265 21.5183673,1.51020408 24.1877551,4.17959184 C24.5061224,4.49795918 24.5061224,5.0122449 24.1877551,5.33061224 L15.444898,14.1959184 C17.6,15.8040816 20.5959184,15.6408163 22,14.277551 L27.6571429,8.7755102 C27.9755102,8.46530612 28.4897959,8.46530612 28.8,8.78367347 L42.7836735,22.7755102 C44.3346939,24.3265306 44.3346939,26.8571429 42.7836735,28.4081633 C42.7836735,28.4081633 42.7836735,28.4081633 42.7836735,28.4081633 C41.844898,29.3469388 40.4734694,29.7469388 39.2081633,29.5918367 C39.3877551,30.8489796 38.9959184,32.2040816 38.0489796,33.1510204 L37.9346939,33.2653061 C36.9795918,34.2204082 35.6734694,34.6204082 34.4489796,34.4653061 C34.4734694,34.6857143 34.4816327,34.9061224 34.4734694,35.1346939 C34.4244898,36.1959184 33.9918367,37.1918367 33.2489796,37.9346939 L33.1918367,37.9918367 C32.2530612,38.9306122 30.922449,39.322449 29.6816327,39.1673469 C29.844898,40.4081633 29.444898,41.7306122 28.5061224,42.677551 L28.4081633,42.7755102 C27.6653061,43.5102041 26.6612245,43.9265306 25.6,43.9265306 Z M14.1959184,1.66530612 C10.8571429,1.66530612 7.71428571,2.96326531 5.34693878,5.33061224 C2.97959184,7.68979592 1.68163265,10.8326531 1.68163265,14.1714286 C1.68163265,17.5102041 2.97959184,20.6530612 5.34693878,23.0204082 L23.9346939,41.6081633 C24.3836735,42.0571429 24.9714286,42.3020408 25.6,42.3020408 C26.2285714,42.3020408 26.8163265,42.0571429 27.2653061,41.6081633 L27.3632653,41.5102041 C28.3020408,40.5714286 28.3673469,39.0122449 27.4938776,38.1142857 L22.0897959,32.7265306 C21.9265306,32.5632653 21.8530612,32.3591837 21.8530612,32.1469388 C21.8530612,31.9428571 21.9346939,31.7306122 22.0897959,31.5755102 C22.4081633,31.2571429 22.922449,31.2571429 23.2408163,31.5755102 L28.644898,36.9632653 C29.5591837,37.8285714 31.1183673,37.7714286 32.0571429,36.8326531 L32.1142857,36.7755102 C33.0530612,35.8367347 33.1183673,34.2938776 32.2612245,33.3959184 L26.8408163,27.9755102 C26.522449,27.6571429 26.522449,27.1428571 26.8408163,26.8244898 C27.1591837,26.5061224 27.6734694,26.5061224 27.9918367,26.8244898 L33.4122449,32.244898 C33.4122449,32.244898 33.4122449,32.244898 33.4204082,32.2530612 C34.3102041,33.1102041 35.8530612,33.044898 36.7918367,32.1142857 L36.8979592,32.0081633 C37.8204082,31.0857143 37.8693878,29.477551 37.0040816,28.5714286 L31.6408163,23.1836735 C31.4857143,23.0285714 31.4040816,22.8163265 31.4040816,22.6122449 C31.4040816,22.4 31.4857143,22.1959184 31.6408163,22.0326531 C31.9591837,21.7142857 32.4734694,21.7142857 32.7918367,22.0326531 L38.155102,27.4204082 C39.044898,28.2612245 40.7020408,28.1877551 41.6244898,27.2653061 C42.5387755,26.3510204 42.5387755,24.8571429 41.6244898,23.9346939 L28.2122449,10.5061224 L23.1265306,15.4530612 C22.0244898,16.522449 20.5632653,16.9877551 19.0612245,16.9877551 C17.0693878,16.9877551 15.0122449,16.1632653 13.6734694,14.8163265 C13.355102,14.4979592 13.355102,13.9836735 13.6734694,13.6653061 L22.4489796,4.78367347 C20.1632653,2.76734694 17.2653061,1.66530612 14.1959184,1.66530612 Z" id="Shape" fill="#006FD3"></path>
                                            </g>
                                        </g>
                                    </g>
                                </g>
                            </g>
                        </g>
                    </g>
                </g>
            </g>
        </g>
    </g>
</svg>
